<svg width="125" height="26" viewBox="0 0 125 26" fill="none" xmlns="http://www.w3.org/2000/svg">
<path d="M28.0488 20.6088V9.76965H32.8199C38.008 9.78491 38.008 17.8367 32.8199 17.8367H30.8209V20.6088H28.0488ZM32.8046 12.2416C32.1536 12.2264 31.4567 12.2416 30.8209 12.2416V15.3392H32.8046C34.3204 15.3392 34.4119 12.2569 32.8046 12.2416Z" fill="#320006"/>
<path d="M53.6794 20.2069V20.6088H50.5817L48.7252 17.4196H47.2858V20.6088H44.5137V9.76965H49.2695C53.5268 9.78491 54.305 14.912 51.5634 16.7685L53.6844 20.2069H53.6794ZM49.2644 12.2416C48.6133 12.2264 47.9317 12.2416 47.2807 12.2416V14.9527H49.2644C50.7649 14.9527 50.8462 12.2569 49.2644 12.2416Z" fill="#320006"/>
<path d="M68.0628 19.2456H63.7902L63.1544 20.6088H60.4434V20.2069L65.3212 9.62726H66.5165L71.4096 20.2069V20.6088H68.6986L68.0628 19.2456ZM65.9112 14.027L64.6854 16.8754H67.1625L65.9062 14.027H65.9112Z" fill="#320006"/>
<path d="M84.4223 9.9375L86.2636 15.7004H86.3094L86.7926 13.8591L88.171 9.76965H90.9278V10.1867L87.1639 20.7207H85.5668L83.8323 15.502H83.7865L82.0521 20.7207H80.516L76.7012 10.1867V9.76965H79.5089L80.9025 13.8591L81.3806 15.7004H81.4264L83.2372 9.9375H84.4121H84.4223Z" fill="#320006"/>
<path d="M102.371 20.6088H98.2812V9.76965H102.371C109.431 9.80017 109.431 20.5782 102.371 20.6088ZM101.053 18.0808H102.371C105.824 18.0808 105.824 12.2874 102.371 12.2874H101.053V18.0808Z" fill="#320006"/>
<path d="M121.66 19.2456H117.382L116.746 20.6088H114.035V20.2069L118.918 9.62726H120.108L125.001 20.2069V20.6088H122.29L121.655 19.2456H121.66ZM119.503 14.027L118.282 16.8754H120.764L119.508 14.027H119.503Z" fill="#320006"/>
<path d="M6.48047 12.3793C6.48047 12.3793 9.29212 7.17123 13.6708 7.17123C13.9606 7.17123 14.2566 7.19305 14.5586 7.24263C18.1143 7.81183 18.7488 10.5448 17.5304 12.9604C18.3089 11.8181 18.7366 10.4754 18.7305 9.06726C18.7244 7.3775 17.5223 6.30255 16.2675 5.89598C15.7506 5.72938 15.1648 5.61038 14.6114 5.61038C11.2301 5.61038 7.74338 7.32394 6.4825 12.3793H6.48047Z" fill="#320006"/>
<path d="M18.1612 6.24271C18.8647 6.93966 19.3893 7.86893 19.3953 9.10061C19.4033 11.8183 17.9943 14.3218 15.6205 15.8018C12.7422 17.5942 10.2317 18.2531 8.09503 18.2531C5.49609 18.2531 3.45191 17.2778 1.97656 16.1843C3.70115 18.3392 6.62572 19.9154 10.1674 19.9154C11.7834 19.9154 13.5281 19.587 15.3451 18.8359C23.556 15.4413 22.141 7.73074 18.1592 6.2447L18.1612 6.24271Z" fill="#320006"/>
<path d="M14.6235 15.2631V7.99883C14.5707 7.98878 14.5199 7.97471 14.463 7.96467C14.205 7.92247 13.945 7.90237 13.6891 7.90237C12.0234 7.90237 10.5893 8.78855 9.48633 9.80534V16.1613C10.0145 16.2558 10.4735 16.2799 10.7782 16.2799C12.1758 16.2799 13.5733 15.9041 14.6214 15.2631H14.6235Z" fill="#320006"/>
<path d="M8.21442 16.505C7.11135 16.1681 5.25876 15.5285 4.26681 13.6099C2.44857 10.0974 3.25061 6.21771 4.84865 3.93187C5.42442 3.11074 6.18203 2.27145 6.95983 1.50076C2.45867 3.78459 0 6.81288 0 11.092C0 12.1976 0.470723 13.4485 0.959628 14.1607C2.50715 16.4122 6.1901 18.8695 11.8549 16.9085C11.5135 16.9509 11.1701 16.9771 10.8246 16.9771C9.85892 16.9771 9.13364 16.7895 8.21442 16.507V16.505Z" fill="#320006"/>
<path d="M13.8366 0.220179C13.3884 0.177492 12.9503 0.157166 12.5222 0.157166C11.1574 0.157166 9.79059 0.492561 8.73063 1.08815C7.30323 1.88903 6.24125 3.09037 5.3731 4.34049C3.99213 6.33255 3.25723 9.62555 4.54735 12.7234C4.33334 12.0099 4.21018 11.1968 4.20008 10.278C4.15163 6.03984 8.42778 2.35047 13.558 2.35047C14.0284 2.35047 14.5028 2.38095 14.9854 2.446C22.3223 3.42577 23.4771 8.32055 23.4771 8.32055C23.4771 8.32055 22.4111 1.0231 13.8346 0.222214L13.8366 0.220179Z" fill="#320006"/>
<path d="M14.5437 22.5672V19.9154C13.0708 20.4164 11.5919 20.6739 10.137 20.6739C9.91886 20.6739 9.70073 20.6679 9.48659 20.6558V22.366C9.48659 23.9918 8.37592 25.3539 6.875 25.7342V25.8428H17.1493V25.7342C15.7104 25.37 14.6317 24.1024 14.5437 22.5652V22.5672Z" fill="#320006"/>
</svg>
